<svg fill="none" xmlns="http://www.w3.org/2000/svg" viewBox="0 0 187 41">
    <path d="M181.71 32.29c-2.88 0-4.32-1.45-4.32-4.34v-10.6h-2.89V13h2.89v-5.3l4.8-2.4V13h4.33v4.34h-4.33v9.16c0 .48.48.96.96.96h2.89l.96 4.82h-5.29ZM155.75 32.29V7.7l4.81-2.4v9.63a6.68 6.68 0 0 1 5.29-2.41c1.9 0 3.64.85 4.91 2.06 1.3 1.17 1.82 3 1.82 5.65V32.3h-4.8v-10.6c0-2.84-1.06-4.21-3.28-4.21-2.43 0-3.94 1.43-3.94 4.2v10.6h-4.8Z" fill="#2D3239"/>
    <path fill-rule="evenodd" clip-rule="evenodd" d="M145.52 34.77a2.92 2.92 0 0 0 1.58-2.48v-.96c-.97.97-2.55 1.44-4.33 1.44-2.37 0-4.2-.74-5.65-2.47-1.45-1.76-2.04-4.42-2.04-7.65 0-3.06.6-5.32 2.04-7.12 1.47-1.83 3.28-3 5.65-3 1.7 0 3.3.95 4.33 1.93V13h4.8v16.87c0 3.43-.68 5.87-1.96 7.37-1.08 1.33-2.92 2.36-5.72 2.75-4.72.65-8.18-1.93-8.18-1.93l1.93-3.37c.48.24 1.68.78 3.36.96a6 6 0 0 0 4.19-.89Zm1.58-8.26c-.75 1.02-1.89 1.92-3.36 1.92a3.57 3.57 0 0 1-2.95-1.7c-.64-.98-.9-2.45-.9-4.08 0-1.73.26-2.88.9-3.78a3.6 3.6 0 0 1 2.95-1.52c1.34 0 2.48.87 3.36 1.93v7.23Z" fill="#2D3239"/>
    <path d="M126.91 32.29V13h4.8V32.3h-4.8Z" fill="#2D3239"/>
    <ellipse cx="129.31" cy="8.19" rx="2.88" ry="2.89" fill="#2D3239"/>
    <path d="M117.78 32.29V7.7l4.8-2.4v26.98h-4.8ZM102.87 32.29V13h4.81v3.38c0-1.45 2.4-3.38 5.29-3.38h2.4v4.82h-2.4c-2.89 0-5.29 1.93-5.29 3.86v10.6h-4.8ZM95.18 32.29v-1.45a6.4 6.4 0 0 1-4.8 1.93c-2.08 0-3.94-.43-5.27-1.53-1.3-1.1-1.95-2.67-1.95-4.7 0-2.08.74-3.66 2.22-4.74a9.58 9.58 0 0 1 5.58-1.61 9.3 9.3 0 0 1 4.22 1.01v-1.44c0-2.03-1.06-2.9-3.36-2.9-2.1 0-3.92.66-5.77 1.94l-1.59-4.01a13.66 13.66 0 0 1 7.84-2.26c1.02 0 1.92.09 2.7.26.8.18 1.62.5 2.47.98.85.48 1.5 1.24 1.95 2.3.48 1.02.57 2.56.57 4.12v12.1h-4.8Zm-3.85-3.68c1.53 0 2.7-.57 3.85-1.62v-1.93a8.57 8.57 0 0 0-3.4-.74c-1.1 0-1.98.19-2.66.57-.67.35-1.15.9-1.15 1.65 0 .63.41 1.13.96 1.5.58.38 1.38.57 2.4.57ZM76.43 32.29c-2.88 0-4.32-1.45-4.32-4.34v-10.6h-2.89V13h2.89v-5.3l4.8-2.4V13h4.33v4.34h-4.32v9.16c0 .48.48.96.96.96h2.4l1.44 4.82h-5.29ZM58.17 32.77c-2.45 0-4.58-.64-6.38-1.92a10.13 10.13 0 0 1-3.72-5.3l4.8-1.45c.58 1.25.92 1.97 1.92 2.72 1 .76 2.13 1.13 3.38 1.13a5.1 5.1 0 0 0 3.07-.83c.78-.55 1.42-1.2 1.42-2.23 0-.53-.13-1-.38-1.4-.25-.4-.67-.76-1.27-1.09a22.81 22.81 0 0 0-3.67-1.5c-1.06-.35-1.86-.63-2.4-.83-.53-.2-1.23-.53-2.1-1.01a8 8 0 0 1-2-1.43 7.96 7.96 0 0 1-1.23-1.95 6.6 6.6 0 0 1-.58-2.67c0-2.05.55-3.74 2.15-5.12 1.6-1.4 3.77-2.1 6.5-2.1 2.24 0 4.13.56 5.65 1.68a9.88 9.88 0 0 1 3.49 4.1l-4.8 1.92c-.83-1.85-2.16-2.89-4.33-2.89-1.1 0-1.97.23-2.6.68-.6.43-.9.93-.9 1.73 0 .52.24 1 .74 1.43.5.4 1.02.71 1.54.94.53.2 1.35.48 2.48.86l2.02.71c.48.18 1.13.46 1.95.83.83.38 1.46.77 1.91 1.17.48.4.97.89 1.47 1.46.52.55.9 1.22 1.12 2 .22.75.36 1.75.36 2.65 0 2.48-1.03 4.14-2.83 5.57-1.77 1.43-4.03 2.14-6.78 2.14Z" fill="#2D3239"/>
    <path d="M6.25 19.28A20.5 20.5 0 0 1 0 33.73l4.8 4.82a27.31 27.31 0 0 0 8.18-19.27c0-2.51-.37-4.97-1.05-7.32A27.46 27.46 0 0 1 .48 5.3a20.48 20.48 0 0 1 5.77 13.98Z" fill="url(#a)"/>
    <path d="M32.2 19.28a20.5 20.5 0 0 1 6.26-14.46L33.65 0a27.31 27.31 0 0 0-8.17 19.28c0 2.5.37 4.97 1.04 7.31a27.46 27.46 0 0 1 11.46 6.67 20.48 20.48 0 0 1-5.77-13.98Z" fill="url(#b)"/>
    <path d="M19.23 6.27A20.4 20.4 0 0 1 4.8 0L0 4.82c4.8 4.94 11.8 8.2 19.23 8.2 2.5 0 4.96-.38 7.3-1.06A27.57 27.57 0 0 1 33.17.48a20.37 20.37 0 0 1-13.95 5.79Z" fill="url(#c)"/>
    <path d="M19.23 32.29a20.4 20.4 0 0 1 14.42 6.26l4.8-4.82a27.18 27.18 0 0 0-19.22-8.19c-2.5 0-4.96.37-7.3 1.05a27.57 27.57 0 0 1-6.65 11.49 20.37 20.37 0 0 1 13.95-5.8Z" fill="url(#d)"/>
    <defs>
        <linearGradient id="a" x1="6.49" y1="4.82" x2="6.49" y2="38.55" gradientUnits="userSpaceOnUse">
            <stop stop-color="#FFBF1B"/>
            <stop offset=".5" stop-color="#F07319"/>
        </linearGradient>
        <linearGradient id="b" x1="31.97" y1="33.73" x2="31.97" y2="0" gradientUnits="userSpaceOnUse">
            <stop stop-color="#FFBF1B"/>
            <stop offset=".5" stop-color="#F07319"/>
        </linearGradient>
        <linearGradient id="c" x1="33.65" y1="6.51" x2="0" y2="6.51" gradientUnits="userSpaceOnUse">
            <stop stop-color="#FFBF1B"/>
            <stop offset=".5" stop-color="#F07319"/>
        </linearGradient>
        <linearGradient id="d" x1="4.81" y1="32.05" x2="38.46" y2="32.05" gradientUnits="userSpaceOnUse">
            <stop stop-color="#FFBF1B"/>
            <stop offset=".5" stop-color="#F07319"/>
        </linearGradient>
    </defs>
</svg>
